<?xml version="1.0" encoding="UTF-8"?>
<svg id="Layer_1" xmlns="http://www.w3.org/2000/svg" version="1.1" viewBox="0 0 314.22 67.56">
  <!-- Generator: Adobe Illustrator 30.0.0, SVG Export Plug-In . SVG Version: 2.1.1 Build 123)  -->
  <defs>
    <style>
      .st0 {
        fill: #732b00;
      }
    </style>
  </defs>
  <g>
    <path class="st0" d="M79.17,44.27c-1.07,0-2.06-.18-2.97-.54-.91-.36-1.69-.86-2.36-1.51s-1.18-1.41-1.55-2.29-.56-1.84-.56-2.88.19-2,.56-2.88.89-1.65,1.56-2.3,1.46-1.15,2.37-1.51,1.9-.54,2.97-.54,2,.17,2.9.52,1.67.86,2.29,1.55l-.95.95c-.58-.6-1.23-1.03-1.93-1.29s-1.46-.4-2.27-.4c-.85,0-1.65.15-2.38.44-.73.29-1.37.7-1.91,1.24-.54.54-.96,1.16-1.27,1.87s-.46,1.49-.46,2.35.15,1.63.46,2.35.73,1.33,1.27,1.87c.54.54,1.18.95,1.91,1.24.73.29,1.52.44,2.38.44s1.57-.14,2.27-.41c.7-.27,1.35-.7,1.93-1.3l.95.95c-.62.69-1.39,1.21-2.29,1.56-.91.35-1.88.53-2.92.53Z"/>
    <path class="st0" d="M89.11,44.15h-1.5v-14.22h1.5v14.22ZM98.15,37.59h-9.2v-1.32h9.2v1.32ZM98,29.93h1.48v14.22h-1.48v-14.22Z"/>
    <path class="st0" d="M105.62,42.85h8.55v1.3h-10.05v-14.22h9.75v1.3h-8.25v11.62ZM105.46,36.29h7.52v1.28h-7.52v-1.28Z"/>
    <path class="st0" d="M117.71,44.15v-14.22h1.5v12.92h7.96v1.3h-9.47Z"/>
    <path class="st0" d="M129.67,44.15v-14.22h1.5v14.22h-1.5Z"/>
    <path class="st0" d="M138.56,44.15v-12.92h-5v-1.3h11.5v1.3h-5v12.92h-1.5Z"/>
    <path class="st0" d="M153.68,44.27c-1.07,0-2.06-.18-2.98-.54-.91-.36-1.71-.87-2.38-1.52-.67-.66-1.19-1.42-1.56-2.29-.37-.87-.56-1.83-.56-2.87s.19-2,.56-2.87c.37-.87.89-1.64,1.56-2.29s1.46-1.16,2.37-1.52,1.9-.54,2.99-.54,2.06.18,2.96.54,1.7.86,2.37,1.51c.67.65,1.19,1.42,1.56,2.3.37.88.56,1.84.56,2.88s-.19,2-.56,2.88c-.37.88-.89,1.65-1.56,2.29-.67.65-1.46,1.15-2.37,1.51-.91.36-1.9.54-2.96.54ZM153.68,42.93c.85,0,1.64-.15,2.37-.44.72-.29,1.35-.7,1.89-1.24.54-.53.95-1.16,1.25-1.87s.45-1.49.45-2.35-.15-1.64-.45-2.35-.71-1.33-1.25-1.87c-.54-.53-1.17-.95-1.89-1.24-.72-.29-1.51-.44-2.37-.44s-1.65.15-2.38.44c-.73.29-1.37.7-1.91,1.24-.54.54-.96,1.16-1.26,1.87s-.45,1.49-.45,2.35.15,1.62.45,2.34c.3.72.72,1.34,1.26,1.88.54.54,1.18.95,1.91,1.24s1.52.44,2.38.44Z"/>
    <path class="st0" d="M169.82,44.15v-14.22h5.79c1.52,0,2.85.3,3.99.9,1.14.6,2.03,1.44,2.67,2.51s.96,2.3.96,3.7-.32,2.63-.96,3.7c-.64,1.07-1.53,1.91-2.67,2.51s-2.47.9-3.99.9h-5.79ZM171.33,42.85h4.21c1.26,0,2.35-.25,3.28-.74.93-.49,1.65-1.18,2.16-2.05s.77-1.88.77-3.02-.26-2.16-.77-3.03c-.51-.87-1.24-1.55-2.16-2.04-.93-.49-2.02-.74-3.28-.74h-4.21v11.62Z"/>
    <path class="st0" d="M188.1,42.85h8.55v1.3h-10.05v-14.22h9.75v1.3h-8.25v11.62ZM187.94,36.29h7.52v1.28h-7.52v-1.28Z"/>
    <path class="st0" d="M205.51,44.15v-14.22h1.24l6.5,11.09h-.65l6.44-11.09h1.24v14.22h-1.44v-11.96h.35l-5.93,10.16h-.71l-5.97-10.16h.39v11.96h-1.44Z"/>
    <path class="st0" d="M231.12,44.27c-1.07,0-2.06-.18-2.98-.54-.91-.36-1.71-.87-2.38-1.52-.67-.66-1.19-1.42-1.56-2.29-.37-.87-.56-1.83-.56-2.87s.19-2,.56-2.87c.37-.87.89-1.64,1.56-2.29s1.46-1.16,2.37-1.52,1.9-.54,2.99-.54,2.06.18,2.96.54,1.7.86,2.37,1.51c.67.65,1.19,1.42,1.56,2.3.37.88.56,1.84.56,2.88s-.19,2-.56,2.88c-.37.88-.89,1.65-1.56,2.29-.67.65-1.46,1.15-2.37,1.51-.91.36-1.9.54-2.96.54ZM231.12,42.93c.85,0,1.64-.15,2.37-.44.72-.29,1.35-.7,1.89-1.24.54-.53.95-1.16,1.25-1.87s.45-1.49.45-2.35-.15-1.64-.45-2.35-.71-1.33-1.25-1.87c-.54-.53-1.17-.95-1.89-1.24-.72-.29-1.51-.44-2.37-.44s-1.65.15-2.38.44c-.73.29-1.37.7-1.91,1.24-.54.54-.96,1.16-1.26,1.87s-.45,1.49-.45,2.35.15,1.62.45,2.34c.3.72.72,1.34,1.26,1.88.54.54,1.18.95,1.91,1.24s1.52.44,2.38.44Z"/>
    <path class="st0" d="M241.95,44.15v-14.22h1.24l9.81,12.35h-.65v-12.35h1.48v14.22h-1.24l-9.79-12.35h.65v12.35h-1.5Z"/>
    <path class="st0" d="M261.23,44.15v-12.92h-5v-1.3h11.5v1.3h-5v12.92h-1.5Z"/>
    <path class="st0" d="M270.12,44.15v-14.22h1.5v14.22h-1.5Z"/>
    <path class="st0" d="M277.76,42.85h8.55v1.3h-10.05v-14.22h9.75v1.3h-8.25v11.62ZM277.6,36.29h7.52v1.28h-7.52v-1.28Z"/>
    <path class="st0" d="M289.84,44.15v-14.22h1.5v12.92h7.96v1.3h-9.47Z"/>
  </g>
  <g>
    <path class="st0" d="M42.4,56.76h0c-1.29,0-2.12-1.31-2.94-2.56-.49-.75-1.08-1.68-1.52-1.8-.63-.03-1.53.43-2.29.81-1.38.71-2.75,1.29-3.73.74-1.09-.63-1.17-2.17-1.25-3.65-.05-.9-.1-2.03-.43-2.36-.32-.32-1.45-.38-2.35-.42-1.48-.07-3.02-.15-3.65-1.23-.62-1.07.07-2.43.73-3.73.42-.82.93-1.83.81-2.3-.12-.43-1.05-1.03-1.79-1.51-1.26-.81-2.56-1.66-2.56-2.94s1.3-2.12,2.56-2.94c.75-.49,1.67-1.09,1.79-1.52.12-.46-.4-1.47-.81-2.29-.67-1.31-1.36-2.66-.74-3.73.63-1.08,2.16-1.16,3.65-1.24.9-.05,2.02-.1,2.35-.42.32-.33.38-1.46.43-2.36.08-1.48.16-3.01,1.25-3.64.96-.53,2.34.03,3.73.74.76.39,1.62.82,2.14.82.58-.13,1.18-1.06,1.66-1.81.81-1.26,1.66-2.56,2.94-2.56s2.13,1.3,2.94,2.56c.48.75,1.08,1.68,1.51,1.79.75.06,1.53-.42,2.3-.81,1.4-.7,2.78-1.27,3.73-.73,1.08.62,1.16,2.16,1.24,3.64.05.9.1,2.03.43,2.36.33.32,1.45.38,2.36.43,1.47.07,3.01.15,3.64,1.23.62,1.07-.07,2.43-.73,3.74-.42.81-.93,1.83-.81,2.29.12.43,1.05,1.03,1.79,1.51,1.26.81,2.56,1.66,2.56,2.94s-1.3,2.13-2.56,2.94c-.75.48-1.67,1.08-1.79,1.51-.12.46.4,1.48.81,2.29.67,1.31,1.36,2.67.74,3.74-.63,1.08-2.16,1.16-3.64,1.23-.91.05-2.03.1-2.36.43-.32.33-.38,1.45-.43,2.36-.08,1.48-.16,3.01-1.24,3.64-.96.55-2.34-.03-3.73-.74-.76-.39-1.62-.82-2.15-.82-.58.13-1.18,1.06-1.66,1.81-.81,1.26-1.66,2.56-2.93,2.56ZM37.79,50.89c.19,0,.37.03.54.07.99.27,1.67,1.31,2.38,2.42.51.79,1.22,1.88,1.69,1.88.47,0,1.17-1.08,1.67-1.88.72-1.11,1.4-2.16,2.38-2.42.95-.28,2.21.33,3.36.92.88.44,1.97.94,2.3.77.38-.22.45-1.55.5-2.42.06-1.34.13-2.6.87-3.34.73-.73,2-.8,3.34-.86.88-.05,2.19-.11,2.41-.49.21-.36-.38-1.53-.77-2.31-.59-1.15-1.19-2.34-.92-3.36.26-.98,1.3-1.66,2.41-2.38.79-.51,1.88-1.22,1.88-1.69s-1.09-1.17-1.88-1.68c-1.11-.72-2.16-1.4-2.42-2.38-.27-1.02.33-2.21.92-3.36.4-.77.99-1.94.77-2.31-.22-.38-1.54-.45-2.41-.49-1.34-.06-2.6-.13-3.34-.87-.74-.73-.8-2-.87-3.34-.05-.88-.12-2.19-.49-2.42-.35-.16-1.42.32-2.3.77-1.16.6-2.43,1.18-3.37.92-.98-.26-1.66-1.31-2.38-2.42-.51-.8-1.22-1.88-1.69-1.88s-1.17,1.08-1.69,1.88c-.71,1.11-1.4,2.16-2.38,2.42-.95.25-2.21-.32-3.36-.92-.87-.45-1.97-.95-2.3-.77-.38.22-.45,1.54-.5,2.42-.06,1.34-.13,2.6-.87,3.34-.73.73-1.99.8-3.33.86-.88.05-2.2.12-2.42.5-.21.36.38,1.53.77,2.3.59,1.15,1.19,2.34.92,3.36-.26.98-1.31,1.66-2.42,2.38-.79.51-1.88,1.21-1.88,1.68s1.09,1.18,1.88,1.69c1.11.71,2.16,1.4,2.42,2.38.28,1.02-.33,2.21-.92,3.37-.4.77-.99,1.94-.77,2.3.22.38,1.54.45,2.42.49,1.34.06,2.6.13,3.34.86.73.74.8,2,.87,3.34.04.88.11,2.21.5,2.43.31.17,1.43-.32,2.3-.77.95-.49,1.94-.99,2.82-.99Z"/>
    <path class="st0" d="M46.63,52.99c-.93,0-1.75-.9-2.62-1.85-.48-.53-1.28-1.41-1.61-1.41s-1.14.89-1.62,1.41c-.98,1.06-1.98,2.1-2.97,1.8-1.06-.28-1.35-1.62-1.66-3.02-.16-.7-.41-1.88-.72-2.05,0,0-.06-.03-.22-.03-.45,0-1.16.22-1.83.44-1.4.43-2.86.75-3.53.07-.8-.8-.35-2.19.07-3.53.22-.67.56-1.78.41-2.06-.17-.3-1.35-.56-2.05-.72-1.4-.32-2.74-.61-3.02-1.66-.28-1.07.78-2.04,1.81-2.98.53-.48,1.4-1.28,1.4-1.62s-.88-1.14-1.4-1.62c-1.02-.94-2.09-1.91-1.81-2.98.28-1.05,1.61-1.35,3.02-1.66.7-.15,1.88-.41,2.05-.71.16-.28-.19-1.39-.41-2.06-.43-1.35-.87-2.73-.07-3.53.69-.7,2.14-.37,3.53.07.68.22,1.39.44,1.83.44.16,0,.21-.03.22-.03.3-.17.56-1.35.72-2.06.32-1.41.61-2.74,1.66-3.02,1.05-.3,2,.74,2.97,1.81.48.53,1.28,1.41,1.61,1.41s1.14-.89,1.62-1.41c.98-1.07,1.98-2.11,2.97-1.81,1.06.28,1.35,1.62,1.66,3.02.16.71.41,1.88.72,2.06,0,0,.06.03.22.03h0c.45,0,1.16-.22,1.83-.44,1.41-.44,2.86-.76,3.53-.07.8.79.36,2.18-.07,3.53-.22.66-.56,1.78-.41,2.06.17.3,1.35.56,2.05.72,1.4.32,2.74.61,3.02,1.66.28,1.07-.73,2-1.81,2.98-.53.48-1.41,1.28-1.41,1.62s.88,1.14,1.4,1.62c1.02.94,2.09,1.91,1.81,2.98-.28,1.06-1.61,1.35-3.02,1.66-.7.16-1.88.41-2.05.72-.16.28.19,1.39.41,2.06.42,1.34.87,2.73.07,3.53-.71.68-2.14.37-3.53-.07-.68-.22-1.39-.44-1.83-.44-.16,0-.22.03-.22.03-.3.17-.56,1.35-.72,2.05-.32,1.41-.61,2.75-1.67,3.02-.11.03-.23.05-.35.05ZM42.39,48.39c.93,0,1.74.89,2.61,1.84.49.53,1.29,1.41,1.63,1.41h0c.28-.11.56-1.39.7-2.01.28-1.27.54-2.46,1.36-2.93.69-.39,1.88-.11,3.13.29.7.22,1.42.45,1.9.45.18,0,.26-.03.28-.05.22-.22-.2-1.54-.41-2.17-.38-1.21-.74-2.35-.29-3.13.47-.81,1.67-1.08,2.93-1.36.62-.14,1.89-.42,2.01-.69.07-.28-.97-1.23-1.41-1.64-.95-.87-1.84-1.68-1.84-2.61s.89-1.74,1.84-2.61c.44-.41,1.47-1.35,1.41-1.64-.11-.27-1.4-.56-2.02-.7-1.26-.28-2.46-.55-2.93-1.36-.45-.78-.09-1.92.29-3.13.19-.58.62-1.95.41-2.17-.02-.01-.09-.05-.28-.05-.47,0-1.19.23-1.9.45-.81.26-1.58.5-2.24.5h0c-.35,0-.65-.07-.89-.21-.81-.47-1.08-1.67-1.36-2.93-.14-.62-.42-1.9-.7-2.02-.33,0-1.14.88-1.62,1.41-.87.95-1.69,1.85-2.62,1.85s-1.75-.89-2.61-1.85c-.49-.53-1.29-1.41-1.63-1.41-.28.11-.56,1.4-.7,2.02-.28,1.26-.54,2.46-1.36,2.93-.73.39-1.88.1-3.12-.3-.7-.22-1.42-.45-1.9-.45-.18,0-.26.03-.28.05-.22.22.22,1.58.41,2.17.38,1.21.74,2.35.29,3.13-.47.81-1.67,1.08-2.93,1.35-.61.14-1.89.42-2.01.7-.07.28.97,1.23,1.41,1.64.95.87,1.84,1.68,1.84,2.61s-.89,1.74-1.84,2.61c-.45.41-1.49,1.36-1.42,1.64.11.27,1.4.56,2.02.7,1.26.28,2.46.55,2.93,1.36.45.78.09,1.92-.29,3.13-.2.63-.62,1.95-.4,2.17.01.01.09.05.27.05.47,0,1.19-.23,1.9-.45,1.25-.39,2.44-.68,3.13-.29.81.47,1.08,1.66,1.36,2.93.14.62.42,1.9.7,2.01.33,0,1.14-.88,1.63-1.41.87-.95,1.68-1.85,2.61-1.85Z"/>
    <path class="st0" d="M42.4,50.31c-1.02,0-1.5-1.25-2.01-2.58-.21-.56-.58-1.51-.8-1.66-.19.04-1,.7-1.49,1.09-1.15.94-2.17,1.63-2.96,1.21-.88-.51-.66-1.82-.45-3.2.09-.58.25-1.53.15-1.84,0,.02-.11,0-.29,0-.41,0-.97.09-1.51.18-.6.09-1.23.19-1.75.19-.27,0-1.09,0-1.46-.64-.49-.86.33-1.88,1.2-2.96.39-.49,1.05-1.3,1.06-1.58-.13-.13-1.07-.49-1.63-.7-1.32-.5-2.57-.98-2.57-2.01s1.25-1.51,2.58-2.02c.56-.21,1.5-.58,1.65-.8-.04-.19-.7-1-1.09-1.48-.88-1.08-1.71-2.1-1.21-2.97.37-.64,1.19-.64,1.46-.64.52,0,1.14.1,1.74.2.89.14,1.86.13,1.87.13.05-.18-.11-1.2-.21-1.8-.23-1.39-.44-2.7.44-3.2.73-.44,1.81.27,2.96,1.2.48.39,1.3,1.05,1.58,1.06.13-.13.48-1.07.7-1.63.5-1.32.98-2.57,2.01-2.57s1.51,1.25,2.02,2.58c.21.56.58,1.5.8,1.65.19-.04,1-.7,1.48-1.09,1.16-.94,2.22-1.65,2.98-1.2.86.51.66,1.82.43,3.2-.09.58-.25,1.53-.15,1.84.07-.03.13,0,.29,0,.41,0,.98-.09,1.52-.18.6-.09,1.23-.19,1.75-.19.27,0,1.09,0,1.46.64.49.86-.33,1.88-1.21,2.96-.39.49-1.05,1.3-1.06,1.57.13.13,1.07.49,1.63.7,1.33.51,2.58.99,2.58,2.01s-1.25,1.51-2.58,2.02c-.56.21-1.5.58-1.65.8.04.19.7,1,1.09,1.48.88,1.08,1.7,2.1,1.21,2.96-.37.64-1.19.64-1.46.64-.52,0-1.14-.1-1.74-.2-.9-.15-1.87-.14-1.87-.13-.05.18.11,1.2.21,1.81.23,1.38.43,2.69-.44,3.2-.74.43-1.81-.27-2.97-1.2-.48-.39-1.3-1.05-1.57-1.06-.13.13-.48,1.07-.7,1.63-.51,1.33-.99,2.58-2.02,2.58ZM39.68,44.74l.31.04c.8.22,1.2,1.26,1.66,2.47.2.51.51,1.32.74,1.63.24-.31.55-1.12.74-1.63.46-1.2.86-2.25,1.66-2.47l.31-.04c.74,0,1.53.63,2.43,1.37.41.33,1.04.83,1.39,1,.03-.39-.1-1.2-.18-1.72-.21-1.3-.39-2.41.21-3.01.37-.37.9-.41,1.27-.41.52,0,1.14.1,1.73.19.66.11,1.44.19,1.72.17-.17-.35-.67-.98-1-1.38-.83-1.02-1.55-1.91-1.33-2.74.21-.8,1.26-1.2,2.46-1.66.51-.2,1.33-.51,1.63-.75-.3-.23-1.12-.54-1.63-.74-1.21-.46-2.25-.86-2.47-1.66-.22-.83.5-1.72,1.33-2.74.33-.4.83-1.03,1-1.38-.27-.03-1.06.06-1.72.17-.6.1-1.22.2-1.74.2-.37,0-.9-.05-1.27-.41-.6-.6-.42-1.73-.21-3.02.08-.52.21-1.34.18-1.72-.35.16-.98.67-1.39,1-.9.74-1.69,1.37-2.43,1.37l-.31-.04c-.8-.21-1.2-1.26-1.66-2.47-.2-.51-.51-1.33-.75-1.63-.23.31-.54,1.12-.74,1.62-.46,1.22-.86,2.26-1.67,2.47l-.31.04c-.74,0-1.53-.63-2.43-1.36-.41-.33-1.04-.84-1.39-1-.04.39.09,1.2.18,1.72.21,1.3.39,2.41-.21,3.01-.37.37-.9.41-1.28.41-.52,0-1.14-.1-1.73-.19-.66-.1-1.39-.2-1.73-.17.17.35.68.98,1,1.38.83,1.02,1.55,1.91,1.33,2.74-.22.8-1.26,1.2-2.46,1.66-.51.2-1.33.51-1.63.75.3.23,1.12.54,1.62.74,1.22.46,2.26.86,2.47,1.67.22.82-.5,1.71-1.33,2.74-.32.4-.83,1.02-.99,1.38.29.06,1.06-.07,1.72-.17.6-.1,1.22-.2,1.73-.2.37,0,.9.05,1.27.41.6.59.43,1.71.22,3.01-.09.52-.22,1.34-.18,1.73.35-.17.98-.68,1.38-1,.91-.73,1.69-1.37,2.44-1.37Z"/>
    <path class="st0" d="M45.06,46.65c-.75,0-1.23-.89-1.9-2.13-.22-.4-.55-1.02-.78-1.32-.24.31-.57.93-.79,1.34-.66,1.23-1.15,2.12-1.88,2.12l-.21-.03c-.85-.22-.82-1.32-.78-2.83,0-.47.03-1.19-.03-1.58-.35.15-.93.51-1.31.75-1.04.64-1.71,1.02-2.26,1.02-.33,0-.54-.14-.66-.26-.63-.63-.01-1.63.76-2.9.24-.38.6-.97.75-1.32-.24-.03-.88-.04-1.57-.03-.28,0-.57.01-.83.01-.71,0-1.8,0-2.01-.79-.23-.85.8-1.41,2.1-2.12.4-.22,1.01-.55,1.32-.78-.31-.24-.93-.57-1.33-.79-1.29-.7-2.31-1.25-2.09-2.09.22-.79,1.29-.79,2.01-.79.52,0,1.12.03,1.64.03.37,0,.61-.02.75-.03-.15-.35-.51-.94-.74-1.32-.78-1.27-1.4-2.28-.77-2.91.12-.12.33-.26.66-.26.55,0,1.22.39,2.26,1.02.38.23.96.59,1.31.74.05-.39.03-1.1.02-1.57-.04-1.52-.07-2.62.77-2.84l.22-.03c.75,0,1.23.89,1.9,2.12.22.4.55,1.02.79,1.32.23-.31.56-.92.78-1.32.67-1.23,1.15-2.12,1.89-2.12l.22.03c.84.22.81,1.32.78,2.84-.01.46-.03,1.17.02,1.57.35-.16.94-.51,1.31-.75,1.04-.64,1.71-1.02,2.26-1.02.33,0,.54.14.65.26.63.62.01,1.63-.76,2.89-.24.39-.6.98-.75,1.33.25.03.87.05,1.57.03.28,0,.57-.01.83-.01.71,0,1.8,0,2.01.79.23.85-.79,1.4-2.09,2.11-.41.22-1.02.55-1.33.79.31.23.92.56,1.32.78,1.3.71,2.33,1.26,2.1,2.12-.21.79-1.28.79-1.99.79-.27,0-.56,0-.85-.02-.66,0-1.31,0-1.57.03.15.35.51.94.75,1.32.77,1.27,1.39,2.27.76,2.9-.12.12-.33.26-.66.26-.55,0-1.22-.39-2.26-1.02-.38-.23-.96-.58-1.31-.73-.05.39-.03,1.1-.02,1.56.04,1.52.07,2.62-.77,2.85l-.22.03ZM42.39,41.81c.73,0,1.21.88,1.88,2.11.15.28.36.66.55.98.01-.36,0-.79,0-1.09-.03-1.41-.06-2.43.58-2.8.54-.3,1.3.05,2.64.87.3.18.7.43,1.04.61-.18-.34-.42-.74-.6-1.03-.73-1.18-1.25-2.03-.88-2.66.37-.63,1.42-.62,2.81-.58.38,0,.77,0,1.08.01-.31-.19-.7-.4-.98-.55-1.23-.66-2.11-1.15-2.11-1.88s.89-1.22,2.12-1.89c.27-.15.65-.35.96-.54-.3.01-.7,0-1.09.01-1.39.01-2.43.05-2.79-.58-.37-.63.16-1.48.88-2.67.18-.28.41-.68.59-1.01-.33.18-.73.42-1.02.6-1.35.82-2.11,1.17-2.66.88-.64-.37-.62-1.39-.58-2.79,0-.31.01-.73,0-1.09-.19.31-.4.69-.55.97-.66,1.22-1.15,2.11-1.88,2.11s-1.22-.88-1.88-2.11c-.15-.28-.36-.66-.55-.98-.01.36,0,.79,0,1.1.03,1.4.06,2.42-.58,2.79-.55.29-1.32-.05-2.65-.87-.29-.18-.7-.43-1.04-.61.18.34.43.75.6,1.03.72,1.18,1.24,2.03.88,2.66-.29.5-.94.6-1.96.6-.52,0-1.11-.03-1.64-.03h-.28c.3.19.68.39.96.54,1.23.67,2.12,1.15,2.12,1.89s-.88,1.21-2.11,1.88c-.28.15-.66.36-.98.55.3.02.7,0,1.09,0,1.42-.03,2.43-.05,2.8.58.37.62-.16,1.48-.88,2.66-.18.29-.42.69-.6,1.02.34-.18.75-.43,1.04-.6,1.33-.82,2.1-1.18,2.64-.88.65.37.62,1.39.59,2.81,0,.31-.02.73,0,1.08.18-.31.39-.68.54-.96.67-1.23,1.15-2.12,1.89-2.12Z"/>
    <path class="st0" d="M42.39,43.65c-.82,0-.91-.94-1.07-2.66-.03-.27-.06-.59-.09-.89-.19.25-.39.53-.55.76-.92,1.29-1.32,1.82-1.86,1.82h-.17l-.19-.1c-.7-.41-.33-1.2.4-2.8.12-.25.25-.56.38-.84-.28.12-.59.26-.83.38-1.05.48-1.7.76-2.13.76h-.36l-.32-.36c-.4-.7.31-1.2,1.72-2.22.23-.16.51-.36.76-.55-.3-.03-.61-.07-.88-.09-1.77-.17-2.66-.25-2.66-1.07s.94-.91,2.66-1.07c.26-.02.59-.06.89-.09-.25-.19-.54-.39-.76-.55-1.42-1.01-2.13-1.52-1.73-2.22l.19-.32.5-.05c.43,0,1.05.28,2.13.77.25.11.55.25.83.37-.12-.28-.25-.59-.37-.83-.73-1.6-1.1-2.4-.4-2.81l.14-.08h.21c.53-.01.89.46,1.86,1.82.16.23.36.51.54.76.03-.3.07-.63.09-.89.17-1.77.25-2.65,1.07-2.65s.91.95,1.07,2.67c.02.26.06.58.09.87.19-.25.39-.54.55-.76.97-1.36,1.33-1.83,1.86-1.83h.17l.19.1c.7.42.34,1.22-.4,2.82-.11.25-.25.54-.37.82.28-.12.59-.25.83-.37,1.07-.49,1.69-.77,2.13-.77h.36l.32.37c.41.69-.31,1.2-1.73,2.21-.23.17-.51.36-.76.55.3.03.62.07.88.09,1.78.17,2.66.25,2.66,1.07s-.94.91-2.66,1.07c-.27.02-.59.06-.89.09.25.19.53.39.75.54,1.42,1.02,2.14,1.53,1.74,2.22l-.19.32-.5.05c-.43,0-1.06-.28-2.13-.77-.24-.11-.54-.25-.83-.37.12.28.27.59.38.84.73,1.6,1.1,2.4.4,2.8l-.14.08h-.21c-.54.01-.94-.52-1.86-1.82-.17-.23-.36-.51-.54-.76-.03.29-.07.61-.09.87-.17,1.72-.25,2.67-1.07,2.67ZM41.53,38.27l.2.03c.37.1.55.4.66.97.12-.57.3-.87.67-.97l.18-.03c.3,0,.54.16.86.5-.17-.53-.16-.87.11-1.14l.19-.19.38-.03c.16,0,.34.04.57.12-.41-.38-.57-.68-.47-1.05.1-.37.4-.55.96-.66-.56-.12-.87-.3-.97-.67-.1-.37.06-.67.47-1.05-.23.08-.41.11-.58.11h-.26l-.3-.22c-.27-.27-.28-.61-.1-1.15-.32.35-.57.51-.86.51l-.2-.03c-.36-.1-.54-.41-.66-.97-.12.56-.3.87-.67.97l-.19.03c-.29,0-.54-.16-.85-.5.17.53.16.87-.1,1.14l-.19.19-.39.03c-.16,0-.34-.04-.57-.11.41.36.56.67.47,1.03-.1.38-.41.56-.97.67.56.12.87.3.97.67.1.37-.06.67-.47,1.05.23-.08.42-.11.58-.11h.27l.3.23c.27.26.28.6.1,1.14.32-.34.56-.5.85-.5Z"/>
    <path class="st0" d="M42.39,40.05h-.29l-.21-.21c-.21-.23-.24-.44-.19-1.49-.32.62-.51.95-.71,1.1l-.28.45.09-.35c-.06.01-.13.03-.21.03h-.18l-.41-.24-.07-.29c-.06-.3,0-.48.54-1.31l-.4.25.04-.06c-.49.31-.63.34-.81.34h-.39l-.34-.59.07-.27c.09-.3.25-.42,1.17-.91-.27.01-.5.02-.68.02l-.92-.07-.08-.63c0-.71.77-.71,1.02-.71.18,0,.42,0,.67.02l-.42-.22h.02c-.58-.32-.71-.45-.79-.69l-.08-.27.32-.6h.41c.22,0,.37.05,1.19.56l-.28-.43.03.02c-.3-.49-.35-.66-.31-.88l-.1-.18.11.1.06-.27.4-.23h.19c.36,0,.53.16.88.8v-.07s.19.38.19.38v-.39s0,.05,0,.05c0-.26,0-.44.02-.58l.02-1.32.21.84.16-.17h.58l.2.21c.21.23.25.42.19,1.49.53-1,.68-1.22,1.11-1.22h.18l.42.23.07.3c.05.24.01.41-.3.92l.04-.03-.04.06.03-.02-.25.38c.77-.49.93-.55,1.14-.55h.39l.34.6-.08.27c-.09.29-.24.42-1.12.87l.41-.02-.07.03c.91.02,1.29.18,1.29.7,0,.71-.77.71-1.03.71-.08,0-.17,0-.27,0l1.45.77-.86-.17c.1.1.15.19.19.31l.08.27-.32.6h-.41c-.18,0-.31-.03-.8-.33l.06.1-.41-.27c.5.79.58.99.51,1.28l-.06.27-.41.25h-.19c-.43,0-.57-.19-1.09-1.2.05,1.06.01,1.24-.2,1.47l-.19.21h-.29Z"/>
  </g>
</svg>